<?xml version="1.0" encoding="UTF-8" standalone="no"?><svg width="16" height="16" viewBox="0 0 16 16" fill="none" xmlns="http://www.w3.org/2000/svg">
<mask id="mask0_11_2803" style="mask-type:alpha" maskUnits="userSpaceOnUse" x="0" y="0" width="16" height="16">
<rect width="16" height="16" fill="#D9D9D9"/>
</mask>
<g mask="url(#mask0_11_2803)">
<path d="M4.50033 14.6668C4.00033 14.6668 3.56977 14.4973 3.20866 14.1584C2.84755 13.8196 2.66699 13.4001 2.66699 12.9001V3.60011C2.66699 3.17789 2.79755 2.80011 3.05866 2.46678C3.31977 2.13345 3.66144 1.92234 4.08366 1.83345L10.667 0.533447V11.2001L4.35033 12.4668C4.25033 12.489 4.16699 12.5418 4.10033 12.6251C4.03366 12.7084 4.00033 12.8001 4.00033 12.9001C4.00033 13.0223 4.05033 13.1251 4.15033 13.2084C4.25033 13.2918 4.36699 13.3334 4.50033 13.3334H12.0003V2.66678H13.3337V14.6668H4.50033ZM6.00033 10.7834L9.33366 10.1334V2.16678L6.00033 2.81678V10.7834ZM4.66699 11.0501V3.08345L4.41699 3.13345C4.29477 3.15567 4.19477 3.20845 4.11699 3.29178C4.03921 3.37511 4.00033 3.47789 4.00033 3.60011V11.2168C4.05588 11.1946 4.11421 11.1751 4.17533 11.1584C4.23644 11.1418 4.29477 11.1279 4.35033 11.1168L4.66699 11.0501Z" fill="black"/>
</g>
</svg>
