<?xml version="1.0" encoding="UTF-8" standalone="no"?><svg width="32" height="32" viewBox="0 0 32 32" fill="none" xmlns="http://www.w3.org/2000/svg">
<mask id="mask0_18_1049" style="mask-type:alpha" maskUnits="userSpaceOnUse" x="0" y="0" width="32" height="32">
<rect width="32" height="32" fill="#D9D9D9"/>
</mask>
<g mask="url(#mask0_18_1049)">
<path d="M14.6667 25.9001V16.7667L6.66667 12.1334V21.2667L14.6667 25.9001ZM17.3333 25.9001L25.3333 21.2667V12.1334L17.3333 16.7667V25.9001ZM14.6667 28.9667L5.33333 23.6001C4.91111 23.3556 4.58333 23.0334 4.35 22.6334C4.11667 22.2334 4 21.789 4 21.3001V10.7001C4 10.2112 4.11667 9.76675 4.35 9.36675C4.58333 8.96675 4.91111 8.64453 5.33333 8.40008L14.6667 3.03341C15.0889 2.78897 15.5333 2.66675 16 2.66675C16.4667 2.66675 16.9111 2.78897 17.3333 3.03341L26.6667 8.40008C27.0889 8.64453 27.4167 8.96675 27.65 9.36675C27.8833 9.76675 28 10.2112 28 10.7001V21.3001C28 21.789 27.8833 22.2334 27.65 22.6334C27.4167 23.0334 27.0889 23.3556 26.6667 23.6001L17.3333 28.9667C16.9111 29.2112 16.4667 29.3334 16 29.3334C15.5333 29.3334 15.0889 29.2112 14.6667 28.9667ZM21.3333 11.3667L23.9 9.90008L16 5.33341L13.4 6.83341L21.3333 11.3667ZM16 14.4667L18.6 12.9667L10.7 8.40008L8.1 9.90008L16 14.4667Z" fill="#1C1B1F"/>
</g>
</svg>
