<?xml version="1.0" encoding="UTF-8" standalone="no"?><svg width="25" height="24" viewBox="0 0 25 24" fill="none" xmlns="http://www.w3.org/2000/svg">
<mask id="mask0_11_2729" style="mask-type:alpha" maskUnits="userSpaceOnUse" x="0" y="0" width="25" height="24">
<rect x="0.498047" width="24" height="24" fill="#04170C"/>
</mask>
<g mask="url(#mask0_11_2729)">
<path d="M12.498 12C11.398 12 10.4564 11.6083 9.67305 10.825C8.88971 10.0417 8.49805 9.1 8.49805 8C8.49805 6.9 8.88971 5.95833 9.67305 5.175C10.4564 4.39167 11.398 4 12.498 4C13.598 4 14.5397 4.39167 15.323 5.175C16.1064 5.95833 16.498 6.9 16.498 8C16.498 9.1 16.1064 10.0417 15.323 10.825C14.5397 11.6083 13.598 12 12.498 12ZM4.49805 20V17.2C4.49805 16.6333 4.64388 16.1125 4.93555 15.6375C5.22721 15.1625 5.61471 14.8 6.09805 14.55C7.13138 14.0333 8.18138 13.6458 9.24805 13.3875C10.3147 13.1292 11.398 13 12.498 13C13.598 13 14.6814 13.1292 15.748 13.3875C16.8147 13.6458 17.8647 14.0333 18.898 14.55C19.3814 14.8 19.7689 15.1625 20.0605 15.6375C20.3522 16.1125 20.498 16.6333 20.498 17.2V20H4.49805ZM6.49805 18H18.498V17.2C18.498 17.0167 18.4522 16.85 18.3605 16.7C18.2689 16.55 18.148 16.4333 17.998 16.35C17.098 15.9 16.1897 15.5625 15.273 15.3375C14.3564 15.1125 13.4314 15 12.498 15C11.5647 15 10.6397 15.1125 9.72305 15.3375C8.80638 15.5625 7.89805 15.9 6.99805 16.35C6.84805 16.4333 6.72721 16.55 6.63555 16.7C6.54388 16.85 6.49805 17.0167 6.49805 17.2V18ZM12.498 10C13.048 10 13.5189 9.80417 13.9105 9.4125C14.3022 9.02083 14.498 8.55 14.498 8C14.498 7.45 14.3022 6.97917 13.9105 6.5875C13.5189 6.19583 13.048 6 12.498 6C11.948 6 11.4772 6.19583 11.0855 6.5875C10.6939 6.97917 10.498 7.45 10.498 8C10.498 8.55 10.6939 9.02083 11.0855 9.4125C11.4772 9.80417 11.948 10 12.498 10Z" fill="#04170C"/>
</g>
</svg>
