<?xml version="1.0" encoding="UTF-8" standalone="no"?><svg width="24" height="25" viewBox="0 0 24 25" fill="none" xmlns="http://www.w3.org/2000/svg">
<mask id="mask0_11_2723" style="mask-type:alpha" maskUnits="userSpaceOnUse" x="0" y="0" width="24" height="25">
<rect y="0.332214" width="24" height="24" fill="#04170C"/>
</mask>
<g mask="url(#mask0_11_2723)">
<path d="M19.6 21.3322L13.3 15.0322C12.8 15.4322 12.225 15.7489 11.575 15.9822C10.925 16.2155 10.2333 16.3322 9.5 16.3322C7.68333 16.3322 6.14583 15.703 4.8875 14.4447C3.62917 13.1864 3 11.6489 3 9.83221C3 8.01555 3.62917 6.47805 4.8875 5.21971C6.14583 3.96138 7.68333 3.33221 9.5 3.33221C11.3167 3.33221 12.8542 3.96138 14.1125 5.21971C15.3708 6.47805 16 8.01555 16 9.83221C16 10.5655 15.8833 11.2572 15.65 11.9072C15.4167 12.5572 15.1 13.1322 14.7 13.6322L21 19.9322L19.6 21.3322ZM9.5 14.3322C10.75 14.3322 11.8125 13.8947 12.6875 13.0197C13.5625 12.1447 14 11.0822 14 9.83221C14 8.58221 13.5625 7.51971 12.6875 6.64471C11.8125 5.76971 10.75 5.33221 9.5 5.33221C8.25 5.33221 7.1875 5.76971 6.3125 6.64471C5.4375 7.51971 5 8.58221 5 9.83221C5 11.0822 5.4375 12.1447 6.3125 13.0197C7.1875 13.8947 8.25 14.3322 9.5 14.3322Z" fill="#04170C"/>
</g>
</svg>
