<?xml version="1.0" encoding="UTF-8" standalone="no"?><svg width="32" height="32" viewBox="0 0 32 32" fill="none" xmlns="http://www.w3.org/2000/svg">
<mask id="mask0_18_1529" style="mask-type:alpha" maskUnits="userSpaceOnUse" x="0" y="0" width="32" height="32">
<rect width="32" height="32" fill="#D9D9D9"/>
</mask>
<g mask="url(#mask0_18_1529)">
<path d="M18.7184 27.3091C18.2578 27.7697 17.6871 28 17.0063 28C16.3254 28 15.7547 27.7697 15.2941 27.3091L4.7209 16.7359C4.50063 16.5156 4.32541 16.2553 4.19524 15.9549C4.06508 15.6546 4 15.3342 4 14.9937V6.403C4 5.74218 4.23529 5.17647 4.70588 4.70588C5.17647 4.23529 5.74218 4 6.403 4H14.9937C15.3342 4 15.6546 4.06508 15.9549 4.19524C16.2553 4.32541 16.5156 4.50063 16.7359 4.7209L27.3091 15.3242C27.7697 15.7847 28 16.3504 28 17.0213C28 17.6921 27.7697 18.2578 27.3091 18.7184L18.7184 27.3091ZM17.0063 25.627L25.597 17.0363L14.9937 6.403H6.403V14.9937L17.0063 25.627ZM9.40676 11.209C9.90738 11.209 10.3329 11.0338 10.6834 10.6834C11.0338 10.3329 11.209 9.90738 11.209 9.40676C11.209 8.90613 11.0338 8.4806 10.6834 8.13016C10.3329 7.77972 9.90738 7.60451 9.40676 7.60451C8.90613 7.60451 8.4806 7.77972 8.13016 8.13016C7.77972 8.4806 7.60451 8.90613 7.60451 9.40676C7.60451 9.90738 7.77972 10.3329 8.13016 10.6834C8.4806 11.0338 8.90613 11.209 9.40676 11.209Z" fill="#1C1B1F"/>
</g>
</svg>
