<?xml version="1.0" encoding="UTF-8" standalone="no"?><svg width="20" height="20" viewBox="0 0 20 20" fill="none" xmlns="http://www.w3.org/2000/svg">
<path fill-rule="evenodd" clip-rule="evenodd" d="M17.0389 9.99978L17.0432 10.0748L17.0561 10.1501L17.0776 10.226L17.1075 10.3027L17.1459 10.3805L17.1925 10.4596L17.2471 10.5402L17.3095 10.6228L17.3794 10.7074L17.4564 10.7942L17.54 10.8835L17.6298 10.9754L17.7251 11.0701L17.8252 11.1675L17.9293 11.2679L18.0363 11.3711L18.1452 11.4771L18.2547 11.5858L18.3636 11.697L18.4704 11.8103L18.5736 11.9255L18.6715 12.0421L18.7625 12.1595L18.845 12.2772L18.9172 12.3945L18.9777 12.5108L19.025 12.6252L19.0578 12.7371L19.0752 12.8456L19.0764 12.9501L19.0609 13.05L19.0286 13.1446L18.9796 13.2336L18.9146 13.3164L18.8342 13.3929L18.7396 13.463L18.632 13.5267L18.5129 13.5842L18.384 13.6357L18.2468 13.6815L18.1032 13.7222L17.9548 13.7582L17.8032 13.7901L17.65 13.8184L17.4966 13.8439L17.3444 13.8671L17.1944 13.8887L17.0478 13.9091L16.9054 13.9291L16.768 13.9492L16.6363 13.9699L16.5107 13.9917L16.3916 14.015L16.2794 14.0404L16.1744 14.0682L16.0767 14.0988L15.9863 14.1325L15.9034 14.1697L15.8279 14.2108L15.7598 14.2559L15.6991 14.3054L15.6455 14.3595L15.5991 14.4186L15.5597 14.4827L15.527 14.5521L15.5008 14.6271L15.4811 14.7077L15.4674 14.7941L15.4595 14.8865L15.4572 14.9849L15.46 15.0894L15.4676 15.1999L15.4795 15.3164L15.4954 15.4388L15.5145 15.5669L15.5364 15.7004L15.5604 15.8389L15.5857 15.9819L15.6117 16.129L15.6373 16.2792L15.6618 16.4319L15.6842 16.586L15.7034 16.7405L15.7184 16.8941L15.7281 17.0454L15.7316 17.1932L15.7278 17.336L15.7158 17.4721L15.6949 17.6003L15.6642 17.7189L15.6233 17.8268L15.5717 17.9228L15.5094 18.0058L15.4364 18.0752L15.3529 18.1303L15.2594 18.1711L15.1566 18.1974L15.0452 18.2098L14.9262 18.2087L14.8007 18.1949L14.6697 18.1695L14.5345 18.1337L14.3962 18.0888L14.2558 18.0361L14.1145 17.977L13.9732 17.9129L13.8328 17.8453L13.6941 17.7755L13.5577 17.7047L13.4243 17.6341L13.2942 17.5648L13.1679 17.4977L13.0457 17.4338L12.9276 17.3738L12.8139 17.3184L12.7046 17.2682L12.5997 17.2238L12.4991 17.1856L12.4028 17.1541L12.3105 17.1294L12.2222 17.112L12.1376 17.1021L12.0566 17.0999L11.9789 17.1056L11.9043 17.1193L11.8325 17.1412L11.7633 17.1712L11.6964 17.2096L11.6315 17.2563L11.5684 17.3113L11.5068 17.3745L11.4463 17.446L11.3867 17.5256L11.3276 17.6131L11.2688 17.7082L11.21 17.8107L11.1508 17.9202L11.0908 18.0361L11.0299 18.1579L10.9676 18.2849L10.9038 18.4162L10.838 18.5509L10.77 18.6878L10.6997 18.8258L10.6267 18.9635L10.551 19.0993L10.4723 19.2317L10.3908 19.3589L10.3062 19.4792L10.2188 19.5909L10.1286 19.6921L10.0359 19.7813L9.941 19.8569L9.84417 19.9175L9.74586 19.9621L9.6465 19.9898L9.54661 20L9.44667 19.9926L9.3472 19.9677L9.24869 19.9257L9.15159 19.8676L9.05633 19.7943L8.96326 19.7072L8.87268 19.6077L8.7848 19.4976L8.6998 19.3785L8.61774 19.2523L8.53863 19.1206L8.46244 18.9853L8.38904 18.8478L8.31829 18.7098L8.24998 18.5726L8.18387 18.4374L8.11971 18.3055L8.05722 18.1778L7.99609 18.0551L7.93602 17.9382L7.8767 17.8277L7.8178 17.7241L7.75902 17.6277L7.70003 17.539L7.64053 17.4582L7.58021 17.3854L7.51877 17.3208L7.45592 17.2645L7.39135 17.2165L7.3248 17.1768L7.25598 17.1454L7.18463 17.1222L7.11048 17.1073L7.03328 17.1003L6.9528 17.1013L6.86882 17.11L6.78111 17.1262L6.68949 17.1497L6.5938 17.1802L6.49389 17.2173L6.38967 17.2608L6.28107 17.31L6.16807 17.3646L6.05072 17.4239L5.92912 17.4873L5.80345 17.5539L5.67398 17.6229L5.54104 17.6934L5.40511 17.7642L5.26671 17.8343L5.12652 17.9024L4.9853 17.9671L4.84392 18.027L4.70334 18.0809L4.56461 18.1272L4.42882 18.1645L4.29713 18.1916L4.17067 18.2073L4.05058 18.2105L3.93792 18.2003L3.83366 18.1762L3.73863 18.1378L3.65351 18.0849L3.57879 18.0178L3.51477 17.9369L3.46152 17.8429L3.41892 17.7369L3.38664 17.6198L3.36416 17.4931L3.35081 17.3581L3.34579 17.2163L3.34818 17.0693L3.35701 16.9183L3.37124 16.765L3.38982 16.6106L3.41173 16.4564L3.43594 16.3034L3.46148 16.1527L3.48743 16.0051L3.51293 15.8614L3.53718 15.7221L3.55945 15.5878L3.57908 15.4588L3.59547 15.3355L3.60806 15.218L3.61638 15.1066L3.61999 15.0011L3.61849 14.9018L3.61153 14.8084L3.5988 14.7211L3.58002 14.6395L3.55492 14.5637L3.52328 14.4934L3.48491 14.4284L3.43961 14.3686L3.38723 14.3137L3.32764 14.2635L3.26074 14.2177L3.18644 14.176L3.1047 14.1382L3.01552 14.1039L2.91894 14.0729L2.81505 14.0447L2.70401 14.0189L2.58604 13.9953L2.46145 13.9733L2.33063 13.9525L2.1941 13.9323L2.05246 13.9123L1.90647 13.892L1.75698 13.8706L1.60502 13.8477L1.45174 13.8227L1.29842 13.7948L1.14648 13.7635L0.997447 13.7282L0.85295 13.6883L0.714667 13.6434L0.584307 13.5928L0.463558 13.5363L0.354038 13.4736L0.257248 13.4045L0.174518 13.329L0.106957 13.2472L0.0554116 13.1592L0.0204357 13.0654L0.00226461 12.9664L0.000809096 12.8625L0.0156598 12.7546L0.046106 12.6432L0.0911654 12.5291L0.149624 12.4131L0.220082 12.2959L0.301001 12.1782L0.390758 12.0607L0.487689 11.944L0.590132 11.8286L0.696465 11.7149L0.805136 11.6034L0.914687 11.4943L1.02377 11.3878L1.13115 11.2841L1.23572 11.1833L1.3365 11.0854L1.43263 10.9903L1.52336 10.898L1.60804 10.8083L1.68614 10.721L1.75718 10.6361L1.82079 10.5533L1.87666 10.4723L1.92453 10.393L1.9642 10.315L1.99551 10.2382L2.01835 10.1622L2.03264 10.0868L2.03833 10.0117L2.03539 9.93669L2.02384 9.86143L2.00371 9.78567L1.97509 9.70914L1.93806 9.63156L1.89279 9.55269L1.83944 9.47227L1.77827 9.39006L1.70955 9.30582L1.63366 9.21935L1.55102 9.13045L1.46215 9.03897L1.36767 8.94476L1.26828 8.84773L1.16481 8.74783L1.05821 8.64506L0.949544 8.53948L0.840002 8.4312L0.730898 8.32041L0.623655 8.2074L0.5198 8.09249L0.420935 7.97612L0.328711 7.8588L0.244798 7.7411L0.170836 7.62367L0.108396 7.5072L0.0589264 7.39243L0.023707 7.28011L0.00379782 7.17099L0 7.06576L0.0128214 6.96511L0.0424546 6.86962L0.0887671 6.77977L0.151305 6.69594L0.229313 6.6184L0.321759 6.54726L0.427379 6.48254L0.544723 6.42409L0.672203 6.37168L0.808147 6.32496L0.950849 6.2835L1.09861 6.2468L1.2498 6.2143L1.40284 6.18541L1.55628 6.15952L1.7088 6.13601L1.85918 6.11425L2.00639 6.09364L2.1495 6.0736L2.28774 6.05357L2.42043 6.03301L2.54705 6.01143L2.66717 5.98835L2.78045 5.96333L2.88664 5.93596L2.98556 5.90585L3.0771 5.87263L3.16121 5.83598L3.23788 5.79558L3.30713 5.75112L3.36904 5.70233L3.4237 5.64895L3.47124 5.59072L3.5118 5.52743L3.54556 5.45885L3.57272 5.3848L3.59349 5.30509L3.60812 5.21959L3.61688 5.12816L3.62008 5.03073L3.61806 4.92724L3.6112 4.81768L3.59991 4.70211L3.58468 4.58064L3.56602 4.45344L3.54452 4.3208L3.52082 4.18305L3.49564 4.04068L3.46974 3.89424L3.44397 3.74443L3.41924 3.59208L3.39649 3.43813L3.37673 3.28365L3.361 3.12984L3.35034 2.97802L3.34579 2.82956L3.34835 2.68593L3.35895 2.54862L3.37844 2.41911L3.40754 2.29883L3.44681 2.18913L3.49664 2.0912L3.55723 2.00605L3.62856 1.93449L3.71041 1.87705L3.80235 1.83401L3.90376 1.80536L4.01384 1.79082L4.13168 1.78984L4.25622 1.80164L4.38637 1.82523L4.52098 1.85947L4.6589 1.90306L4.79901 1.95464L4.94024 2.01281L5.08161 2.07616L5.22222 2.14328L5.36126 2.21284L5.49805 2.28357L5.63199 2.35428L5.76261 2.42388L5.88952 2.49137L6.01244 2.55585L6.13116 2.61652L6.24555 2.67268L6.35555 2.72371L6.46117 2.76906L6.56244 2.80827L6.65946 2.84093L6.75236 2.86668L6.84129 2.88524L6.92644 2.89635L7.00802 2.89978L7.08623 2.89537L7.16132 2.88296L7.23354 2.86242L7.30314 2.83367L7.37038 2.79664L7.43555 2.75129L7.49892 2.69761L7.56078 2.63565L7.62142 2.56546L7.68115 2.48716L7.74027 2.40093L7.79908 2.30698L7.85791 2.20563L7.91706 2.09725L7.97686 1.98232L8.03761 1.86141L8.09964 1.7352L8.16324 1.60452L8.22869 1.47031L8.29627 1.33363L8.36623 1.19572L8.43876 1.05792L8.51405 0.921709L8.59222 0.788684L8.67334 0.660527L8.75741 0.538983L8.84438 0.425821L8.93412 0.32279L9.02643 0.231568L9.12103 0.153715L9.21759 0.0906126L9.31569 0.0434186L9.41491 0.0130206L9.51476 0L9.61472 0.00460818L9.7143 0.026756L9.81299 0.0660175L9.91035 0.121648L10.0059 0.192613L10.0994 0.277632L10.1904 0.375224L10.2787 0.483761L10.3641 0.60152L10.4467 0.726737L10.5263 0.857651L10.6029 0.992544L10.6767 1.12978L10.7479 1.26781L10.8166 1.40524L10.883 1.54077L10.9475 1.67327L11.0102 1.80172L11.0715 1.92525L11.1318 2.04312L11.1912 2.1547L11.2501 2.25946L11.3089 2.35699L11.3678 2.44694L11.4272 2.52905L11.4874 2.60313L11.5486 2.66904L11.6113 2.72668L11.6755 2.77601L11.7417 2.81701L11.8102 2.84971L11.8811 2.87416L11.9548 2.89045L12.0315 2.89867L12.1114 2.89896L12.1949 2.89149L12.282 2.87647L12.3729 2.85411L12.468 2.82471L12.5672 2.78859L12.6707 2.74612L12.7786 2.69774L12.8909 2.64396L13.0076 2.58536L13.1285 2.5226L13.2536 2.45644L13.3825 2.38774L13.5149 2.31743L13.6504 2.24657L13.7884 2.17629L13.9283 2.10784L14.0695 2.04252L14.2109 1.9817L14.3517 1.92679L14.4908 1.87921L14.6271 1.84034L14.7595 1.81151L14.8869 1.79394L15.0081 1.7887L15.122 1.79668L15.2276 1.81853L15.3242 1.85468L15.4109 1.90526L15.4873 1.97012L15.553 2.04886L15.608 2.1408L15.6523 2.24502L15.6862 2.36041L15.7102 2.48568L15.7249 2.61945L15.7312 2.76024L15.7299 2.90658L15.7221 3.05697L15.7086 3.21L15.6907 3.36431L15.6692 3.51866L15.6453 3.6719L15.6199 3.82303L15.594 3.97117L15.5684 4.11557L15.5439 4.25559L15.5212 4.39073L15.5011 4.52056L15.4842 4.6448L15.471 4.76321L15.4619 4.87565L15.4575 4.98204L15.4582 5.08237L15.4643 5.17665L15.4761 5.26497L15.4939 5.34743L15.5179 5.42416L15.5485 5.49533L15.5858 5.56113L15.63 5.62175L15.6812 5.67741L15.7397 5.72837L15.8054 5.77486L15.8785 5.81717L15.9591 5.85557L16.0471 5.89039L16.1425 5.92194L16.2452 5.95057L16.3551 5.97666L16.472 6.00062L16.5956 6.02286L16.7254 6.04384L16.8611 6.06406L17.002 6.08403L17.1473 6.10429L17.2963 6.12543L17.4479 6.14803L17.6011 6.17271L17.7545 6.20009L17.9068 6.23079L18.0564 6.26541L18.2017 6.30452L18.3411 6.34867L18.4728 6.39831L18.5952 6.45384L18.7066 6.51554L18.8055 6.58361L18.8906 6.6581L18.9606 6.73894L19.0148 6.82595L19.0524 6.91881L19.0733 7.01707L19.0774 7.12018L19.0651 7.22753L19.037 7.33842L18.9942 7.45211L18.9378 7.56786L18.8692 7.68492L18.7898 7.80257L18.7013 7.92015L18.6054 8.03704L18.5038 8.15271L18.398 8.26667L18.2896 8.37856L18.1801 8.48807L18.0708 8.59496L17.9631 8.69909L17.858 8.80036L17.7565 8.89875L17.6596 8.9943L17.568 9.08707L17.4823 9.17719L17.4031 9.26479L17.3309 9.35007L17.2661 9.43323L17.209 9.51448L17.1598 9.59406L17.1189 9.67222L17.0862 9.74922L17.062 9.82531L17.0463 9.90078L17.0393 9.97588L17.0389 9.99978Z" fill="white"/>
</svg>
