<?xml version="1.0" encoding="UTF-8" standalone="no"?><svg width="25" height="24" viewBox="0 0 25 24" fill="none" xmlns="http://www.w3.org/2000/svg">
<mask id="mask0_11_2726" style="mask-type:alpha" maskUnits="userSpaceOnUse" x="0" y="0" width="25" height="24">
<rect x="0.498047" width="24" height="24" fill="#04170C"/>
</mask>
<g mask="url(#mask0_11_2726)">
<path d="M7.49805 22C6.94805 22 6.47721 21.8042 6.08555 21.4125C5.69388 21.0208 5.49805 20.55 5.49805 20C5.49805 19.45 5.69388 18.9792 6.08555 18.5875C6.47721 18.1958 6.94805 18 7.49805 18C8.04805 18 8.51888 18.1958 8.91055 18.5875C9.30221 18.9792 9.49805 19.45 9.49805 20C9.49805 20.55 9.30221 21.0208 8.91055 21.4125C8.51888 21.8042 8.04805 22 7.49805 22ZM17.498 22C16.948 22 16.4772 21.8042 16.0855 21.4125C15.6939 21.0208 15.498 20.55 15.498 20C15.498 19.45 15.6939 18.9792 16.0855 18.5875C16.4772 18.1958 16.948 18 17.498 18C18.048 18 18.5189 18.1958 18.9105 18.5875C19.3022 18.9792 19.498 19.45 19.498 20C19.498 20.55 19.3022 21.0208 18.9105 21.4125C18.5189 21.8042 18.048 22 17.498 22ZM6.64805 6L9.04805 11H16.048L18.798 6H6.64805ZM5.69805 4H20.448C20.8314 4 21.123 4.17083 21.323 4.5125C21.523 4.85417 21.5314 5.2 21.348 5.55L17.798 11.95C17.6147 12.2833 17.3689 12.5417 17.0605 12.725C16.7522 12.9083 16.4147 13 16.048 13H8.59805L7.49805 15H19.498V17H7.49805C6.74805 17 6.18138 16.6708 5.79805 16.0125C5.41471 15.3542 5.39805 14.7 5.74805 14.05L7.09805 11.6L3.49805 4H1.49805V2H4.74805L5.69805 4Z" fill="#04170C"/>
</g>
</svg>
