<?xml version="1.0" encoding="UTF-8" standalone="no"?><svg width="16" height="16" viewBox="0 0 16 16" fill="none" xmlns="http://www.w3.org/2000/svg">
<mask id="mask0_11_2797" style="mask-type:alpha" maskUnits="userSpaceOnUse" x="0" y="0" width="16" height="16">
<rect width="16" height="16" fill="white"/>
</mask>
<g mask="url(#mask0_11_2797)">
<path d="M4.66699 14.6666C4.30033 14.6666 3.98644 14.536 3.72533 14.2749C3.46421 14.0138 3.33366 13.6999 3.33366 13.3333C3.33366 12.9666 3.46421 12.6527 3.72533 12.3916C3.98644 12.1305 4.30033 11.9999 4.66699 11.9999C5.03366 11.9999 5.34755 12.1305 5.60866 12.3916C5.86977 12.6527 6.00033 12.9666 6.00033 13.3333C6.00033 13.6999 5.86977 14.0138 5.60866 14.2749C5.34755 14.536 5.03366 14.6666 4.66699 14.6666ZM11.3337 14.6666C10.967 14.6666 10.6531 14.536 10.392 14.2749C10.1309 14.0138 10.0003 13.6999 10.0003 13.3333C10.0003 12.9666 10.1309 12.6527 10.392 12.3916C10.6531 12.1305 10.967 11.9999 11.3337 11.9999C11.7003 11.9999 12.0142 12.1305 12.2753 12.3916C12.5364 12.6527 12.667 12.9666 12.667 13.3333C12.667 13.6999 12.5364 14.0138 12.2753 14.2749C12.0142 14.536 11.7003 14.6666 11.3337 14.6666ZM4.10033 3.99992L5.70033 7.33325H10.367L12.2003 3.99992H4.10033ZM3.46699 2.66659H13.3003C13.5559 2.66659 13.7503 2.78047 13.8837 3.00825C14.017 3.23603 14.0225 3.46659 13.9003 3.69992L11.5337 7.96658C11.4114 8.18881 11.2475 8.36103 11.042 8.48325C10.8364 8.60547 10.6114 8.66658 10.367 8.66658H5.40033L4.66699 9.99992H12.667V11.3333H4.66699C4.16699 11.3333 3.78921 11.1138 3.53366 10.6749C3.2781 10.236 3.26699 9.79992 3.50033 9.36658L4.40033 7.73325L2.00033 2.66659H0.666992V1.33325H2.83366L3.46699 2.66659Z" fill="white"/>
</g>
</svg>
